-
      the fast  and The Hottest Private Tracker on the net

Please Seed back to make the speed Faster!!
 ............ NFO .............
-[IMG]http://imgr.us/images/cfcwoww6bkndq840upp.jpg[/IMG]

VAiN . P R E S E N T S . . .

Oz the Great and Powerful 2013 TS XViD - VAiN

iMDB........: http://www.imdb.com/title/tt1623205/
PLOT........: A small-time magician arrives in an enchanted land and 
is forced to decide if he will be a good man or a great one. 


T E C H N i C A L . i N F O . . .      

General
Complete name                            : ...Oz the Great and Powerful 2013 TS XViD - VAiNOz the Great and Powerful 2013 TS XViD - VAiN.avi
Format                                   : AVI
Format/Info                              : Audio Video Interleave
File size                                : 1.38 GiB
Duration                                 : 2h 4mn
Overall bit rate                         : 1 595 Kbps
Writing application                      : VirtualDubMod 1.5.10.2 (build 2540/release)
Writing library                          : VirtualDubMod build 2540/release

Video
ID                                       : 0
Format                                   : MPEG-4 Visual
Format profile                           : Advanced Simple@L5
Format settings, BVOP                    : 2
Format settings, QPel                    : No
Format settings, GMC                     : No warppoints
Format settings, Matrix                  : Default (H.263)
Muxing mode                              : Packed bitstream
Codec ID                                 : XVID
Codec ID/Hint                            : XviD
Duration                                 : 2h 4mn
Bit rate                                 : 1 457 Kbps
Width                                    : 720 pixels
Height                                   : 304 pixels
Display aspect ratio                     : 2.40:1
Original display aspect ratio            : 2.35:1
Frame rate                               : 25.000 fps
Color space                              : YUV
Chroma subsampling                       : 4:2:0
Bit depth                                : 8 bits
Scan type                                : Progressive
Compression mode                         : Lossy
Bits/(Pixel*Frame)                       : 0.266
Stream size                              : 1.26 GiB (91%)
Writing library                          : XviD 1.2.1 (UTC 2008-12-04)

Audio
ID                                       : 1
Format                                   : MPEG Audio
Format version                           : Version 1
Format profile                           : Layer 3
Mode                                     : Joint stereo
Mode extension                           : MS Stereo
Codec ID                                 : 55
Codec ID/Hint                            : MP3
Duration                                 : 2h 4mn
Bit rate mode                            : Constant
Bit rate                                 : 128 Kbps
Channel(s)                               : 2 channels
Sampling rate                            : 48.0 KHz
Compression mode                         : Lossy
Stream size                              : 114 MiB (8%)
Alignment                                : Split accross interleaves
Interleave, duration                     : 40 ms (1.00 video frame)
Interleave, preload duration             : 500 ms
Writing library                          : LAME3.98.2





E N C O D E R S . N O T E S . . .       

SOURCE......: Oz the Great and Powerful 2013 720p TS OWNSOURCE XviD-THC (thanks)
SAMPLE......: Yes
ADDED NOTE..: Tweaked lots of things, 
still a bit dark in places but overal not bad,
Enjoy...


S C R E E N . S H O T S . . .

[IMG]http://imgr.us/images/ftvot2uls3d4czgqik5e.png[/IMG]

[IMG]http://imgr.us/images/03ccwe4hyu8ckb5oa9v.png[/IMG]

[IMG]http://imgr.us/images/yhgh8awp2nzjwaops7gi.png[/IMG]

[IMG]http://imgr.us/images/tmbuoe41s8ik29n4ivvr.png[/IMG]

[IMG]http://imgr.us/images/mskshq0qu9kriyz5aha.png[/IMG]

[IMG]http://imgr.us/images/q2nik1p4h4gq2tepikpb.png[/IMG]

[IMG]http://imgr.us/images/szk5kkpb5qir515p5xy.png[/IMG]

[IMG]http://imgr.us/images/d4t6d0koyonhk0ybt8bd.jpg[/IMG]